<svg width="59" height="49" viewBox="0 0 59 49" fill="none" xmlns="http://www.w3.org/2000/svg">
<g clip-path="url(#clip0_15_6)">
<path d="M29.2584 33.205C26.3485 33.205 23.5577 32.2509 21.5001 30.5526C19.4425 28.8542 18.2865 26.5508 18.2865 24.1491C18.2865 21.7473 19.4425 19.4439 21.5001 17.7456C23.5577 16.0473 26.3485 15.0932 29.2584 15.0932C32.1683 15.0932 34.9591 16.0473 37.0167 17.7456C39.0743 19.4439 40.2303 21.7473 40.2303 24.1491C40.2303 26.5508 39.0743 28.8542 37.0167 30.5526C34.9591 32.2509 32.1683 33.205 29.2584 33.205ZM29.2584 36.2236C33.1383 36.2236 36.8593 34.9515 39.6028 32.6871C42.3463 30.4226 43.8876 27.3514 43.8876 24.1491C43.8876 20.9467 42.3463 17.8755 39.6028 15.6111C36.8593 13.3467 33.1383 12.0745 29.2584 12.0745C25.3785 12.0745 21.6575 13.3467 18.914 15.6111C16.1705 17.8755 14.6292 20.9467 14.6292 24.1491C14.6292 27.3514 16.1705 30.4226 18.914 32.6871C21.6575 34.9515 25.3785 36.2236 29.2584 36.2236ZM29.2584 0C29.7434 0 30.2085 0.159017 30.5515 0.442069C30.8944 0.72512 31.0871 1.10902 31.0871 1.50932V7.54658C31.0871 7.94688 30.8944 8.33078 30.5515 8.61383C30.2085 8.89688 29.7434 9.0559 29.2584 9.0559C28.7734 9.0559 28.3083 8.89688 27.9654 8.61383C27.6224 8.33078 27.4298 7.94688 27.4298 7.54658V1.50932C27.4298 1.10902 27.6224 0.72512 27.9654 0.442069C28.3083 0.159017 28.7734 0 29.2584 0ZM29.2584 39.2422C29.7434 39.2422 30.2085 39.4013 30.5515 39.6843C30.8944 39.9674 31.0871 40.3513 31.0871 40.7516V46.7888C31.0871 47.1891 30.8944 47.573 30.5515 47.8561C30.2085 48.1391 29.7434 48.2981 29.2584 48.2981C28.7734 48.2981 28.3083 48.1391 27.9654 47.8561C27.6224 47.573 27.4298 47.1891 27.4298 46.7888V40.7516C27.4298 40.3513 27.6224 39.9674 27.9654 39.6843C28.3083 39.4013 28.7734 39.2422 29.2584 39.2422ZM58.5168 24.1491C58.5168 24.5494 58.3242 24.9333 57.9812 25.2163C57.6383 25.4994 57.1732 25.6584 56.6882 25.6584H49.3736C48.8886 25.6584 48.4235 25.4994 48.0805 25.2163C47.7376 24.9333 47.5449 24.5494 47.5449 24.1491C47.5449 23.7488 47.7376 23.3649 48.0805 23.0818C48.4235 22.7988 48.8886 22.6398 49.3736 22.6398H56.6882C57.1732 22.6398 57.6383 22.7988 57.9812 23.0818C58.3242 23.3649 58.5168 23.7488 58.5168 24.1491ZM10.9719 24.1491C10.9719 24.5494 10.7792 24.9333 10.4363 25.2163C10.0934 25.4994 9.62824 25.6584 9.14325 25.6584H1.82865C1.34366 25.6584 0.878538 25.4994 0.535599 25.2163C0.192661 24.9333 0 24.5494 0 24.1491C0 23.7488 0.192661 23.3649 0.535599 23.0818C0.878538 22.7988 1.34366 22.6398 1.82865 22.6398H9.14325C9.62824 22.6398 10.0934 22.7988 10.4363 23.0818C10.7792 23.3649 10.9719 23.7488 10.9719 24.1491ZM49.9478 7.07266C50.2906 7.3557 50.4832 7.73953 50.4832 8.13975C50.4832 8.53996 50.2906 8.92379 49.9478 9.20683L44.7763 13.4782C44.6063 13.6183 44.4045 13.7295 44.1825 13.8052C43.9604 13.881 43.7225 13.9199 43.4822 13.9198C42.9969 13.9195 42.5317 13.7601 42.1888 13.4767C42.019 13.3364 41.8844 13.1698 41.7926 12.9865C41.7008 12.8033 41.6536 12.6069 41.6538 12.4085C41.6542 12.008 41.8473 11.624 42.1906 11.341L47.362 7.07266C47.705 6.78971 48.17 6.63075 48.6549 6.63075C49.1398 6.63075 49.6048 6.78971 49.9478 7.07266ZM16.3262 34.823C16.669 35.106 16.8616 35.4898 16.8616 35.89C16.8616 36.2903 16.669 36.6741 16.3262 36.9571L11.1548 41.2255C10.8099 41.5004 10.348 41.6525 9.86849 41.6491C9.38903 41.6457 8.93038 41.4869 8.59133 41.2071C8.25229 40.9273 8.05997 40.5487 8.0558 40.153C8.05164 39.7572 8.23595 39.376 8.56906 39.0913L13.7405 34.823C14.0834 34.54 14.5484 34.3811 15.0333 34.3811C15.5182 34.3811 15.9833 34.54 16.3262 34.823ZM49.9478 41.2255C49.6048 41.5084 49.1398 41.6674 48.6549 41.6674C48.17 41.6674 47.705 41.5084 47.362 41.2255L42.1906 36.9571C41.8575 36.6725 41.6732 36.2912 41.6774 35.8955C41.6815 35.4997 41.8739 35.1212 42.2129 34.8413C42.5519 34.5615 43.0106 34.4028 43.4901 34.3993C43.9695 34.3959 44.4314 34.548 44.7763 34.823L49.9478 39.0913C50.2906 39.3743 50.4832 39.7582 50.4832 40.1584C50.4832 40.5586 50.2906 40.9424 49.9478 41.2255ZM16.3262 13.4782C15.9833 13.7612 15.5182 13.9201 15.0333 13.9201C14.5484 13.9201 14.0834 13.7612 13.7405 13.4782L8.56906 9.20683C8.3944 9.0676 8.25509 8.90106 8.15925 8.71692C8.06342 8.53277 8.01297 8.33472 8.01086 8.13431C8.00875 7.93391 8.05502 7.73516 8.14696 7.54967C8.23891 7.36418 8.37469 7.19566 8.54639 7.05395C8.71809 6.91224 8.92226 6.80017 9.14699 6.72428C9.37173 6.64839 9.61252 6.6102 9.85533 6.61194C10.0981 6.61368 10.3381 6.65532 10.5612 6.73442C10.7843 6.81352 10.9861 6.9285 11.1548 7.07266L16.3262 11.341C16.4965 11.4812 16.6316 11.6478 16.7238 11.8311C16.816 12.0145 16.8634 12.2111 16.8634 12.4096C16.8634 12.6081 16.816 12.8047 16.7238 12.9881C16.6316 13.1714 16.4965 13.338 16.3262 13.4782Z" fill="white"/>
</g>
<defs>
<clipPath id="clip0_15_6">
<rect width="58.5168" height="48.2981" fill="white"/>
</clipPath>
</defs>
</svg>
